<svg id="Capa_1" enable-background="new 0 0 512.006 512.006" height="512" viewBox="0 0 512.006 512.006" width="512" xmlns="http://www.w3.org/2000/svg"><g><path d="m418.507 418.514c-18.625 18.639-22.705 56.774-44.993 68.13-23.073 11.773-56.47-7.58-81.544-3.634-25.307 3.995-51.131 32.605-76.445 28.617-25.06-3.946-40.807-39.011-63.894-50.784-22.281-11.349-59.977-3.21-78.63-21.835-18.625-18.653-10.479-56.356-21.835-78.63-11.775-23.09-46.84-38.837-50.786-63.897-3.988-25.314 24.622-51.138 28.617-76.445 3.946-25.074-15.408-58.471-3.634-81.544 11.356-22.288 49.49-26.368 68.13-44.993 18.632-18.646 22.712-56.781 45-68.137 23.066-11.766 56.469 7.58 81.544 3.635 25.307-3.995 51.131-32.605 76.445-28.617 4.844.757 9.32 2.687 13.577 5.374-9.786 19.799-6.421 44.449 10.055 60.924 4.78 4.78 10.253 8.443 16.065 11.017-3.005 18.053-.191 36.89 8.45 53.479 3.917 7.51 4.016 32.187 4.016 32.187s24.678.099 32.187 4.016c16.589 8.641 35.426 11.455 53.479 8.45 2.574 5.812 6.237 11.285 11.017 16.066 16.476 16.476 41.125 19.841 60.924 10.055 2.687 4.257 4.617 8.733 5.374 13.577 3.988 25.314-24.621 51.138-28.617 76.445-3.946 25.074 15.401 58.478 3.635 81.544-11.357 22.287-49.491 26.367-68.137 45z" fill="#b46615"/><path d="m418.507 418.514c-18.625 18.639-22.705 56.774-44.993 68.13-23.073 11.773-56.47-7.58-81.544-3.634-25.307 3.995-51.131 32.605-76.445 28.617-25.06-3.946-40.807-39.011-63.894-50.784-22.281-11.349-59.977-3.21-78.63-21.835l275.644-275.644s24.678.099 32.187 4.016c16.589 8.641 35.426 11.455 53.479 8.45 2.574 5.812 6.237 11.285 11.017 16.066 16.476 16.476 41.125 19.841 60.924 10.055 2.687 4.257 4.617 8.733 5.374 13.577 3.988 25.314-24.621 51.138-28.617 76.445-3.946 25.074 15.401 58.478 3.635 81.544-11.357 22.284-49.491 26.364-68.137 44.997z" fill="#874208"/><ellipse cx="174.527" cy="337.479" fill="#ffdca9" rx="43.94" ry="43.94" transform="matrix(.924 -.383 .383 .924 -115.863 92.477)"/><path d="m368.557 205.604c-17.161 17.161-44.993 17.161-62.155 0-17.161-17.161-17.162-44.993 0-62.155 10.409-10.394 24.735-14.496 38.226-12.275 3.917 7.51 9.03 14.559 15.337 20.867 6.307 6.307 13.357 11.42 20.867 15.337 2.22 13.491-1.881 27.817-12.275 38.226z" fill="#ffdca9"/><path d="m205.597 368.549c-17.161 17.161-44.979 17.162-62.141 0l62.141-62.141c17.161 17.162 17.161 44.98 0 62.141z" fill="#fcba67"/><path d="m306.402 205.604 53.563-53.563c6.307 6.307 13.357 11.42 20.867 15.337 2.22 13.492-1.881 27.818-12.275 38.226-17.162 17.161-44.994 17.161-62.155 0z" fill="#fcba67"/><circle cx="177.299" cy="177.3" fill="#ffdca9" r="54.894"/><circle cx="334.706" cy="334.707" fill="#fcba67" r="54.894"/></g></svg>