<svg id="Capa_1" enable-background="new 0 0 512 512" height="512" viewBox="0 0 512 512" width="512" xmlns="http://www.w3.org/2000/svg" xmlns:xlink="http://www.w3.org/1999/xlink"><linearGradient id="SVGID_1_" gradientUnits="userSpaceOnUse" x1="256" x2="256" y1="436" y2="76"><stop offset="0" stop-color="#a93aff"/><stop offset="1" stop-color="#ff81ff"/></linearGradient><linearGradient id="SVGID_2_" gradientUnits="userSpaceOnUse" x1="256" x2="256" y1="376" y2="136"><stop offset="0" stop-color="#ffbef9"/><stop offset="1" stop-color="#fff1ff"/></linearGradient><g id="Credit_Cards_3_"><g><g><path d="m512 91c0-8.401-6.599-15-15-15h-482c-8.401 0-15 6.599-15 15v45l128.5 15-128.5 15v255c0 8.401 6.599 15 15 15h482c8.401 0 15-6.599 15-15v-255l-128.5-15 128.5-15z" fill="url(#SVGID_1_)"/></g></g><g><g><path d="m196 196h-90c-24.814 0-45 20.186-45 45v30c0 24.814 20.186 45 45 45h90c24.814 0 45-20.186 45-45v-30c0-24.814-20.186-45-45-45zm-196-60v30h512v-30zm121 210h-45c-8.291 0-15 6.709-15 15s6.709 15 15 15h45c8.291 0 15-6.709 15-15s-6.709-15-15-15zm105 0h-45c-8.291 0-15 6.709-15 15s6.709 15 15 15h45c8.291 0 15-6.709 15-15s-6.709-15-15-15zm105 0h-45c-8.291 0-15 6.709-15 15s6.709 15 15 15h45c8.291 0 15-6.709 15-15s-6.709-15-15-15zm105 0h-45c-8.291 0-15 6.709-15 15s6.709 15 15 15h45c8.291 0 15-6.709 15-15s-6.709-15-15-15z" fill="url(#SVGID_2_)"/></g></g></g></svg>