<svg xmlns="http://www.w3.org/2000/svg" xmlns:xlink="http://www.w3.org/1999/xlink" xml:space="preserve" version="1.1" style="shape-rendering:geometricPrecision;text-rendering:geometricPrecision;image-rendering:optimizeQuality;" viewBox="0 0 8467 10583.75" x="0px" y="0px" fill-rule="evenodd" clip-rule="evenodd"><defs><style type="text/css">
   
    .fil0 {fill:black}
   
  </style></defs><g><path class="fil0" d="M265 1720l0 5027c0,364 297,661 661,661l6615 0c363,0 661,-297 661,-661l0 -5027c0,-364 -298,-662 -661,-662l-6615 0c-364,0 -661,298 -661,662zm1003 141l5931 0c63,0 119,55 119,118l0 4508c0,64 -56,119 -119,119l-5931 0c-64,0 -119,-56 -119,-119l0 -4508c0,-63 55,-118 119,-118l0 0z"/><polygon class="fil0" points="1623,4471 1623,6131 6843,6131 6843,5420 5657,4233 5064,4827 3166,2928 "/><path class="fil0" d="M4317 3091c0,393 319,712 712,712 393,0 712,-319 712,-712 0,-393 -319,-712 -712,-712 -393,0 -712,319 -712,712z"/></g><text x="0" y="8482" fill="#000000" font-size="5px" font-weight="bold" font-family="'Helvetica Neue', Helvetica, Arial-Unicode, Arial, Sans-serif">Created by IcoMoon</text><text x="0" y="8487" fill="#000000" font-size="5px" font-weight="bold" font-family="'Helvetica Neue', Helvetica, Arial-Unicode, Arial, Sans-serif">from the Noun Project</text></svg>