<?xml version="1.0" encoding="utf-8"?>
<!-- Generator: Adobe Illustrator 24.0.0, SVG Export Plug-In . SVG Version: 6.00 Build 0)  -->
<svg version="1.1" xmlns="http://www.w3.org/2000/svg" xmlns:xlink="http://www.w3.org/1999/xlink" x="0px" y="0px"
	 viewBox="0 0 98.4 76.9" style="enable-background:new 0 0 98.4 76.9;" xml:space="preserve">
<style type="text/css">
	.st0{fill:#0066CC;}
</style>
<g id="Layer_2">
</g>
<g id="Layer_1">
	<g>
		<circle class="st0" cx="28.5" cy="36.4" r="5.2"/>
		<path class="st0" d="M90.2,14.8H60.3c-0.2,3.7-3.3,6.7-7.1,6.7h-8.1c-3.8,0-6.9-3-7.1-6.7H8.2c-3.6,0-6.5,2.9-6.5,6.5v47
			c0,3.6,2.9,6.6,6.5,6.6h82c3.6,0,6.5-2.9,6.5-6.6V21.4C96.7,17.7,93.8,14.8,90.2,14.8z M41.9,60.7c-1.1,1.5-2.8,2.4-4.7,2.4H19.8
			c-1.9,0-3.6-0.9-4.7-2.4s-1.4-3.4-0.9-5.2l1.4-4.4c1-3.3,3.3-5.9,6.1-7.6c-1.9-1.8-3-4.3-3-7.1c0-5.4,4.4-9.9,9.9-9.9
			c5.4,0,9.9,4.4,9.9,9.9c0,2.8-1.2,5.3-3,7.1c2.8,1.7,5.1,4.3,6.1,7.6l1.4,4.4C43.4,57.3,43,59.2,41.9,60.7z M81.9,55.5H52.4
			c-1.3,0-2.3-1-2.3-2.3c0-1.3,1-2.3,2.3-2.3h29.5c1.3,0,2.3,1,2.3,2.3C84.2,54.5,83.1,55.5,81.9,55.5z M81.9,38.8H52.4
			c-1.3,0-2.3-1-2.3-2.3s1-2.3,2.3-2.3h29.5c1.3,0,2.3,1,2.3,2.3C84.2,37.7,83.1,38.8,81.9,38.8z"/>
		<path class="st0" d="M37,52.5c-1.2-3.7-4.6-6.2-8.5-6.2s-7.3,2.5-8.5,6.2l-1.4,4.4c-0.2,0.5,0,0.9,0.2,1.1c0.1,0.2,0.4,0.5,1,0.5
			h17.4c0.5,0,0.8-0.3,1-0.5c0.1-0.2,0.3-0.6,0.2-1.1L37,52.5z"/>
		<path class="st0" d="M45.2,17h8c1.4,0,2.5-1.1,2.5-2.5v-6c0-3.6-2.9-6.5-6.5-6.5s-6.5,2.9-6.5,6.5v6C42.7,15.8,43.8,17,45.2,17z"
			/>
	</g>
</g>
</svg>
